<svg id="Layer_1" xmlns="http://www.w3.org/2000/svg" viewBox="-156 346.5 298.7 101.5">
  <style>
    .st0{fill:#40147f}.st1{fill:#fe304c}
  </style>
  <g id="concurrency_x0D_glossary">
    <path class="st0" d="M-40.4 391c-1.3-1.5-1.9-4.1-1.9-7.6s.6-6 1.9-7.6c1.3-1.5 3.2-2.3 5.7-2.3.9 0 1.8.1 2.7.2.9.2 1.6.3 2.3.5v1.9H-34c-1.2 0-2.2.5-2.8 1.6-.6 1.1-1 2.9-1 5.6 0 2.7.3 4.6 1 5.6.7 1.1 1.7 1.6 3.2 1.6h4.2v2c-.6.2-1.4.4-2.3.5-.9.2-1.8.2-2.7.2-2.7.1-4.7-.7-6-2.2zM-25.8 391c-1.3-1.5-1.9-4.1-1.9-7.6s.6-6 1.9-7.6c1.3-1.5 3.2-2.3 5.7-2.3 2.6 0 4.5.8 5.7 2.3 1.3 1.5 1.9 4.1 1.9 7.6s-.6 6-1.9 7.6c-1.3 1.5-3.2 2.3-5.7 2.3-2.6 0-4.5-.8-5.7-2.3zm7.9-1.8c.5-1.1.8-3 .8-5.8 0-2.7-.3-4.7-.8-5.8s-1.3-1.7-2.2-1.7c-1 0-1.7.6-2.2 1.7s-.8 3-.8 5.8c0 2.7.3 4.7.8 5.8.5 1.1 1.3 1.7 2.2 1.7 1-.1 1.7-.6 2.2-1.7zM-8.5 373.9h3.2l.6 1.1h.2c1.1-1 2.5-1.5 4.4-1.5 1.8 0 3.3.4 4.3 1.3 1.1.9 1.6 2.5 1.6 4.7v13.3H1.2v-13.2c0-1.2-.3-2.1-.9-2.6s-1.3-.8-2.2-.8c-.4 0-.8.1-1.2.2-.4.2-.7.3-.9.5v15.9h-4.6l.1-18.9zM11.6 391c-1.3-1.5-1.9-4.1-1.9-7.6s.6-6 1.9-7.6c1.3-1.5 3.2-2.3 5.7-2.3.9 0 1.8.1 2.7.2.9.2 1.6.3 2.3.5v1.9h-4.2c-1.2 0-2.2.5-2.8 1.6-.6 1.1-1 2.9-1 5.6 0 2.7.3 4.6 1 5.6.7 1.1 1.7 1.6 3.2 1.6h4.2v2c-.6.2-1.4.4-2.3.5-.9.2-1.8.2-2.7.2-2.8.1-4.8-.7-6.1-2.2zM27.2 392c-1.1-.9-1.6-2.5-1.6-4.7v-13.4h4.6v13.3c0 1.2.3 2.1.9 2.6.6.5 1.3.8 2.2.8.5 0 .9-.1 1.2-.2.4-.2.7-.3.9-.5v-16H40v19h-3.2l-.6-1.1H36c-1.1 1-2.5 1.5-4.4 1.5s-3.3-.5-4.4-1.3zM44.8 373.9H48l.6 1.5h.2c1.1-1 2.5-1.5 4.4-1.5h2.5v3.2h-4.2c-.4 0-.8.1-1.2.2-.4.2-.7.3-.9.5v15h-4.6v-18.9zM58.5 373.9h3.2l.6 1.5h.2c1.1-1 2.5-1.5 4.4-1.5h2.5v3.2h-4.2c-.4 0-.8.1-1.2.2-.4.2-.7.3-.9.5v15h-4.6v-18.9zM74.5 392.3c-1.2-.6-2.2-1.7-2.8-3.1-.6-1.4-.9-3.4-.9-5.8 0-3.5.6-6 1.8-7.6 1.2-1.5 3-2.3 5.4-2.3s4.2.8 5.4 2.3 1.8 4.1 1.8 7.6v1.3h-9.9c0 2.1.4 3.6 1.1 4.5.8.9 2 1.3 3.6 1.3h4.2v2c-.6.2-1.4.4-2.3.5-.9.2-1.8.2-2.7.2-1.8.1-3.5-.2-4.7-.9zm6.2-10.2c0-2.3-.2-3.9-.7-4.8-.5-.9-1.1-1.3-2-1.3s-1.5.4-2 1.3-.7 2.5-.7 4.8h5.4zM89.2 373.9h3.2l.6 1.1h.2c1.1-1 2.5-1.5 4.4-1.5 1.8 0 3.3.4 4.3 1.3 1.1.9 1.6 2.5 1.6 4.7v13.3h-4.6v-13.2c0-1.2-.3-2.1-.9-2.6-.6-.5-1.3-.8-2.2-.8-.4 0-.8.1-1.2.2-.4.2-.7.3-.9.5v15.9h-4.6l.1-18.9zM109.4 391c-1.3-1.5-1.9-4.1-1.9-7.6s.6-6 1.9-7.6c1.3-1.5 3.2-2.3 5.7-2.3.9 0 1.8.1 2.7.2.9.2 1.6.3 2.3.5v1.9h-4.2c-1.2 0-2.2.5-2.8 1.6-.6 1.1-1 2.9-1 5.6 0 2.7.3 4.6 1 5.6.7 1.1 1.7 1.6 3.2 1.6h4.2v2c-.6.2-1.4.4-2.3.5-.9.2-1.8.2-2.7.2-2.8.1-4.8-.7-6.1-2.2zM126.8 400.6c-.9-.2-1.6-.3-2.3-.5v-1.9h4.2c1.5 0 2.6-.5 3.3-1.4.7-.9 1.1-2.5 1.1-4.7-.9.8-2.2 1.1-3.8 1.1-1.8 0-3.3-.4-4.3-1.3-1.1-.9-1.6-2.5-1.6-4.7v-13.3h4.6v13.3c0 1.2.3 2.1.9 2.6s1.3.8 2.2.8c.5 0 .9-.1 1.2-.2.4-.2.7-.3.9-.5v-16h4.6v17.5c0 3.4-.7 5.8-2 7.3s-3.4 2.2-6.2 2.2c-1 0-1.9-.1-2.8-.3z"/>
    <path class="st1" d="M-38.5 432.4c-.9-.2-1.6-.3-2.3-.5V430h4.2c1.5 0 2.6-.4 3.3-1.3.7-.9 1.1-2.4 1.1-4.5-.8.6-1.9.9-3.2.9-2.2 0-3.9-.8-5.1-2.3-1.2-1.6-1.8-4.1-1.8-7.5 0-3.5.7-6.1 2-7.6s3.4-2.3 6.4-2.3c1.3 0 2.4.1 3.4.3.9.2 1.9.5 2.9.9v16.7c0 3.4-.7 5.8-2 7.3s-3.4 2.2-6.2 2.2c-1-.2-1.8-.3-2.7-.4zm5.4-10.3c.4-.2.7-.3.9-.5v-13.7H-34c-1.2 0-2.2.5-2.8 1.6-.6 1.1-1 2.9-1 5.6 0 2.7.3 4.5.9 5.6.6 1.1 1.4 1.6 2.5 1.6.5.1.9 0 1.3-.2zM-22.6 424.6v-26.5h4.6v26.6h-4.6v-.1zM-12 422.7c-1.3-1.5-1.9-4.1-1.9-7.6s.6-6 1.9-7.6c1.3-1.5 3.2-2.3 5.7-2.3 2.6 0 4.5.8 5.7 2.3 1.3 1.5 1.9 4.1 1.9 7.6s-.6 6-1.9 7.6c-1.3 1.5-3.2 2.3-5.7 2.3s-4.4-.8-5.7-2.3zm8-1.8c.5-1.1.8-3 .8-5.8 0-2.7-.3-4.7-.8-5.8-.5-1.1-1.3-1.7-2.2-1.7-1 0-1.7.6-2.2 1.7-.5 1.1-.8 3-.8 5.8 0 2.7.3 4.7.8 5.8s1.3 1.7 2.2 1.7c.9-.1 1.7-.6 2.2-1.7zM6.7 424.8c-.9-.2-1.6-.3-2.3-.5v-1.9h4.2c1.5 0 2.6-.2 3.3-.6.7-.4 1.1-1.1 1.1-2 0-.8-.3-1.4-.9-1.8-.6-.4-1.5-.9-2.8-1.5-1.1-.5-2-.9-2.7-1.3-.7-.4-1.3-1-1.8-1.7s-.7-1.7-.7-2.8c0-2 .6-3.4 1.8-4.2s3.1-1.2 5.6-1.2c.9 0 1.8.1 2.7.2.9.2 1.6.3 2.3.5v1.9h-4.2c-1.1 0-2 .2-2.6.6-.7.4-1 1-1 1.7 0 .8.3 1.4.9 1.8.6.4 1.5.9 2.8 1.5 1.1.5 2 .9 2.7 1.3.7.4 1.3 1 1.8 1.7s.7 1.7.7 2.8c0 1.5-.3 2.7-.9 3.5-.6.8-1.5 1.4-2.6 1.7-1.2.3-2.7.5-4.7.5-1 0-1.9-.1-2.7-.2zM21.7 424.8c-.9-.2-1.6-.3-2.3-.5v-1.9h4.2c1.5 0 2.6-.2 3.3-.6.7-.4 1.1-1.1 1.1-2 0-.8-.3-1.4-.9-1.8-.6-.4-1.5-.9-2.8-1.5-1.1-.5-2-.9-2.7-1.3-.7-.4-1.3-1-1.8-1.7s-.7-1.7-.7-2.8c0-2 .6-3.4 1.8-4.2s3.1-1.2 5.6-1.2c.9 0 1.8.1 2.7.2.9.2 1.6.3 2.3.5v1.9h-4.2c-1.1 0-2 .2-2.6.6-.7.4-1 1-1 1.7 0 .8.3 1.4.9 1.8.6.4 1.5.9 2.8 1.5 1.1.5 2 .9 2.7 1.3.7.4 1.3 1 1.8 1.7s.7 1.7.7 2.8c0 1.5-.3 2.7-.9 3.5-.6.8-1.5 1.4-2.6 1.7-1.2.3-2.7.5-4.7.5-1 0-1.9-.1-2.7-.2zM36.7 423.7c-1.1-.9-1.6-2.5-1.6-4.7 0-2.3.5-3.9 1.6-4.8 1.1-.9 2.6-1.3 4.6-1.3.9 0 2 .1 3.2.4v-1.5c0-1.4-.3-2.4-1-3-.7-.5-1.7-.8-3-.8h-3.8v-1.9c.6-.2 1.3-.4 2.2-.5.9-.2 1.6-.2 2.4-.2 1.8 0 3.3.2 4.4.5 1.1.4 2 1 2.5 1.9.6.9.9 2.3.9 4v12.9H46l-.6-1.1h-.2c-1.1 1-2.5 1.5-4.2 1.5-1.8-.1-3.2-.5-4.3-1.4zm7.1-1.6c.4-.2.7-.3.9-.5v-6.1h-2.1c-.8 0-1.5.3-2 .8-.6.5-.8 1.4-.8 2.6 0 1.2.3 2.1.8 2.6.6.5 1.2.8 2 .8.4.1.8 0 1.2-.2zM54.1 405.7h3.2l.6 1.5h.2c1.1-1 2.5-1.5 4.4-1.5H65v3.2h-4.2c-.4 0-.8.1-1.2.2-.4.2-.7.3-.9.5v15h-4.6v-18.9zM71.2 432.4c-.9-.2-1.6-.3-2.3-.5V430h4.2c1.5 0 2.6-.5 3.3-1.4s1.1-2.5 1.1-4.7c-.9.8-2.2 1.1-3.8 1.1-1.8 0-3.3-.4-4.3-1.3-1.1-.9-1.6-2.5-1.6-4.7v-13.3h4.6V419c0 1.2.3 2.1.9 2.6.6.5 1.3.8 2.2.8.5 0 .9-.1 1.2-.2.4-.2.7-.3.9-.5v-16h4.6v17.5c0 3.4-.7 5.8-2 7.3s-3.4 2.2-6.2 2.2c-1-.1-1.9-.2-2.8-.3z"/>
  </g>
  <g id="Group_2_1_">
    <path class="st1" d="M-82.1 412.7h-.5c-4.4 0-6.9-4.4-5-8.3h-.1c2.5-5 1.8-11.2-1.6-15.6-3.1-4-8-6.2-13.1-5.8-5 .4-9.5 3.4-11.8 7.7-2.4 4.4-2.4 10 .1 14.4 2.8 5.1 8.1 7.7 13.8 7.7 4.2 0 6.3 4.4 4.9 8h.1c-2.6 4.9-2.2 11.1 1.1 15.6 2.9 4 7.7 6.4 12.7 6.2 5-.2 9.6-2.9 12.2-7.2 2.6-4.3 2.9-9.8.6-14.4-2.5-5.1-7.8-8.3-13.4-8.3z" id="Gradient_Fill_1_copy_2_"/>
    <path class="st0" d="M-82.1 353c-5.1 0-9.6 2.6-12.3 6.5-.4 1-1.2 1.9-2.2 2.6-2.4 1.5-5.5.9-7.2-1.3 0 0-.1 0-.1.1-2.5-4.7-7.5-7.8-13.1-7.8-4.9-.1-9.6 2.4-12.4 6.4-3.1 4.5-3.6 10.6-.9 15.4h-.1c1.5 3.6-.8 8-4.9 8-3.3 0-6.4.7-9.1 2.5-2.6 1.7-4.6 4.3-5.7 7.2-2.2 6-.3 13 4.8 17 2.9 2.3 6.4 3.1 10.1 3.1 4.2 0 6.3 4.4 4.9 8h.1c-1.1 2.1-1.7 4.4-1.7 6.9-.1 9.8 9.5 17 18.9 14.3 9.4-2.7 13.8-14 8.5-22.3-2.9-4.5-7.8-6.9-13.1-6.9-4.4 0-6.9-4.4-5-8.3h-.1c2.1-4.1 1.9-9 0-13.2h.1c-1.1-1.7-.9-4.2.2-5.9 1.1-1.6 2.8-2.4 4.8-2.4 5.3 0 10.2-2.3 13-6.9.5-.8 1.1-1.5 2-2 2.6-1.6 6-.8 7.6 1.8 0 .1.1.2.1.2l.1-.1c4.6 7.4 15 9.2 21.8 3.8 6.4-5.1 7.5-14.7 2.4-21.1-2.7-3.5-7-5.6-11.5-5.6z" id="Ellipse_2_copy_3_2_"/>
  </g>
</svg>
