<?xml version="1.0" encoding="utf-8"?>
<!-- Generator: Adobe Illustrator 19.0.0, SVG Export Plug-In . SVG Version: 6.00 Build 0)  -->
<svg version="1.1" xmlns="http://www.w3.org/2000/svg" xmlns:xlink="http://www.w3.org/1999/xlink" x="0px" y="0px"
	 viewBox="0 0 298.7 101.5" style="enable-background:new 0 0 298.7 101.5;" xml:space="preserve">
<style type="text/css">
	.st0{fill:#40147F;}
	.st1{fill:#FE304C;}
</style>
<g id="Background_xA0_Image_1_">
</g>
<g id="concurrency_x0D_glossary">
	<g>
		<path class="st0" d="M115.6,44.5c-1.3-1.5-1.9-4.1-1.9-7.6c0-3.5,0.6-6,1.9-7.6c1.3-1.5,3.2-2.3,5.7-2.3c0.9,0,1.8,0.1,2.7,0.2
			c0.9,0.2,1.6,0.3,2.3,0.5v1.9H122c-1.2,0-2.2,0.5-2.8,1.6c-0.6,1.1-1,2.9-1,5.6c0,2.7,0.3,4.6,1,5.6c0.7,1.1,1.7,1.6,3.2,1.6h4.2
			V46c-0.6,0.2-1.4,0.4-2.3,0.5c-0.9,0.2-1.8,0.2-2.7,0.2C118.9,46.8,116.9,46,115.6,44.5z"/>
		<path class="st0" d="M130.2,44.5c-1.3-1.5-1.9-4.1-1.9-7.6c0-3.5,0.6-6,1.9-7.6c1.3-1.5,3.2-2.3,5.7-2.3c2.6,0,4.5,0.8,5.7,2.3
			c1.3,1.5,1.9,4.1,1.9,7.6c0,3.5-0.6,6-1.9,7.6c-1.3,1.5-3.2,2.3-5.7,2.3C133.3,46.8,131.4,46,130.2,44.5z M138.1,42.7
			c0.5-1.1,0.8-3,0.8-5.8c0-2.7-0.3-4.7-0.8-5.8c-0.5-1.1-1.3-1.7-2.2-1.7c-1,0-1.7,0.6-2.2,1.7c-0.5,1.1-0.8,3-0.8,5.8
			c0,2.7,0.3,4.7,0.8,5.8c0.5,1.1,1.3,1.7,2.2,1.7C136.9,44.3,137.6,43.8,138.1,42.7z"/>
		<path class="st0" d="M147.5,27.4h3.2l0.6,1.1h0.2c1.1-1,2.5-1.5,4.4-1.5c1.8,0,3.3,0.4,4.3,1.3c1.1,0.9,1.6,2.5,1.6,4.7v13.3h-4.6
			V33.1c0-1.2-0.3-2.1-0.9-2.6s-1.3-0.8-2.2-0.8c-0.4,0-0.8,0.1-1.2,0.2c-0.4,0.2-0.7,0.3-0.9,0.5v15.9h-4.6V27.4z"/>
		<path class="st0" d="M167.6,44.5c-1.3-1.5-1.9-4.1-1.9-7.6c0-3.5,0.6-6,1.9-7.6c1.3-1.5,3.2-2.3,5.7-2.3c0.9,0,1.8,0.1,2.7,0.2
			c0.9,0.2,1.6,0.3,2.3,0.5v1.9h-4.2c-1.2,0-2.2,0.5-2.8,1.6c-0.6,1.1-1,2.9-1,5.6c0,2.7,0.3,4.6,1,5.6c0.7,1.1,1.7,1.6,3.2,1.6h4.2
			V46c-0.6,0.2-1.4,0.4-2.3,0.5c-0.9,0.2-1.8,0.2-2.7,0.2C170.9,46.8,168.9,46,167.6,44.5z"/>
		<path class="st0" d="M183.2,45.5c-1.1-0.9-1.6-2.5-1.6-4.7V27.4h4.6v13.3c0,1.2,0.3,2.1,0.9,2.6c0.6,0.5,1.3,0.8,2.2,0.8
			c0.5,0,0.9-0.1,1.2-0.2c0.4-0.2,0.7-0.3,0.9-0.5V27.4h4.6v19h-3.2l-0.6-1.1h-0.2c-1.1,1-2.5,1.5-4.4,1.5
			C185.7,46.8,184.3,46.3,183.2,45.5z"/>
		<path class="st0" d="M200.8,27.4h3.2l0.6,1.5h0.2c1.1-1,2.5-1.5,4.4-1.5h2.5v3.2h-4.2c-0.4,0-0.8,0.1-1.2,0.2
			c-0.4,0.2-0.7,0.3-0.9,0.5v15h-4.6V27.4z"/>
		<path class="st0" d="M214.5,27.4h3.2l0.6,1.5h0.2c1.1-1,2.5-1.5,4.4-1.5h2.5v3.2h-4.2c-0.4,0-0.8,0.1-1.2,0.2
			c-0.4,0.2-0.7,0.3-0.9,0.5v15h-4.6V27.4z"/>
		<path class="st0" d="M230.5,45.8c-1.2-0.6-2.2-1.7-2.8-3.1c-0.6-1.4-0.9-3.4-0.9-5.8c0-3.5,0.6-6,1.8-7.6c1.2-1.5,3-2.3,5.4-2.3
			c2.4,0,4.2,0.8,5.4,2.3c1.2,1.5,1.8,4.1,1.8,7.6v1.3h-9.9c0,2.1,0.4,3.6,1.1,4.5c0.8,0.9,2,1.3,3.6,1.3h4.2V46
			c-0.6,0.2-1.4,0.4-2.3,0.5c-0.9,0.2-1.8,0.2-2.7,0.2C233.4,46.8,231.7,46.5,230.5,45.8z M236.7,35.6c0-2.3-0.2-3.9-0.7-4.8
			c-0.5-0.9-1.1-1.3-2-1.3c-0.9,0-1.5,0.4-2,1.3c-0.5,0.9-0.7,2.5-0.7,4.8H236.7z"/>
		<path class="st0" d="M245.2,27.4h3.2l0.6,1.1h0.2c1.1-1,2.5-1.5,4.4-1.5c1.8,0,3.3,0.4,4.3,1.3c1.1,0.9,1.6,2.5,1.6,4.7v13.3h-4.6
			V33.1c0-1.2-0.3-2.1-0.9-2.6c-0.6-0.5-1.3-0.8-2.2-0.8c-0.4,0-0.8,0.1-1.2,0.2c-0.4,0.2-0.7,0.3-0.9,0.5v15.9h-4.6V27.4z"/>
		<path class="st0" d="M265.4,44.5c-1.3-1.5-1.9-4.1-1.9-7.6c0-3.5,0.6-6,1.9-7.6c1.3-1.5,3.2-2.3,5.7-2.3c0.9,0,1.8,0.1,2.7,0.2
			c0.9,0.2,1.6,0.3,2.3,0.5v1.9h-4.2c-1.2,0-2.2,0.5-2.8,1.6c-0.6,1.1-1,2.9-1,5.6c0,2.7,0.3,4.6,1,5.6c0.7,1.1,1.7,1.6,3.2,1.6h4.2
			V46c-0.6,0.2-1.4,0.4-2.3,0.5c-0.9,0.2-1.8,0.2-2.7,0.2C268.7,46.8,266.7,46,265.4,44.5z"/>
		<path class="st0" d="M282.8,54.1c-0.9-0.2-1.6-0.3-2.3-0.5v-1.9h4.2c1.5,0,2.6-0.5,3.3-1.4c0.7-0.9,1.1-2.5,1.1-4.7
			c-0.9,0.8-2.2,1.1-3.8,1.1c-1.8,0-3.3-0.4-4.3-1.3c-1.1-0.9-1.6-2.5-1.6-4.7V27.4h4.6v13.3c0,1.2,0.3,2.1,0.9,2.6s1.3,0.8,2.2,0.8
			c0.5,0,0.9-0.1,1.2-0.2c0.4-0.2,0.7-0.3,0.9-0.5V27.4h4.6v17.5c0,3.4-0.7,5.8-2,7.3c-1.3,1.5-3.4,2.2-6.2,2.2
			C284.6,54.4,283.7,54.3,282.8,54.1z"/>
		<path class="st1" d="M117.5,85.9c-0.9-0.2-1.6-0.3-2.3-0.5v-1.9h4.2c1.5,0,2.6-0.4,3.3-1.3c0.7-0.9,1.1-2.4,1.1-4.5
			c-0.8,0.6-1.9,0.9-3.2,0.9c-2.2,0-3.9-0.8-5.1-2.3c-1.2-1.6-1.8-4.1-1.8-7.5c0-3.5,0.7-6.1,2-7.6c1.3-1.5,3.4-2.3,6.4-2.3
			c1.3,0,2.4,0.1,3.4,0.3c0.9,0.2,1.9,0.5,2.9,0.9v16.7c0,3.4-0.7,5.8-2,7.3c-1.3,1.5-3.4,2.2-6.2,2.2
			C119.2,86.1,118.4,86,117.5,85.9z M122.9,75.6c0.4-0.2,0.7-0.3,0.9-0.5V61.4H122c-1.2,0-2.2,0.5-2.8,1.6c-0.6,1.1-1,2.9-1,5.6
			c0,2.7,0.3,4.5,0.9,5.6c0.6,1.1,1.4,1.6,2.5,1.6C122.1,75.9,122.5,75.8,122.9,75.6z"/>
		<path class="st1" d="M133.4,78.1V51.6h4.6v26.6H133.4z"/>
		<path class="st1" d="M144,76.2c-1.3-1.5-1.9-4.1-1.9-7.6c0-3.5,0.6-6,1.9-7.6c1.3-1.5,3.2-2.3,5.7-2.3c2.6,0,4.5,0.8,5.7,2.3
			c1.3,1.5,1.9,4.1,1.9,7.6c0,3.5-0.6,6-1.9,7.6c-1.3,1.5-3.2,2.3-5.7,2.3C147.2,78.5,145.3,77.7,144,76.2z M152,74.4
			c0.5-1.1,0.8-3,0.8-5.8c0-2.7-0.3-4.7-0.8-5.8c-0.5-1.1-1.3-1.7-2.2-1.7c-1,0-1.7,0.6-2.2,1.7c-0.5,1.1-0.8,3-0.8,5.8
			c0,2.7,0.3,4.7,0.8,5.8c0.5,1.1,1.3,1.7,2.2,1.7C150.7,76,151.5,75.5,152,74.4z"/>
		<path class="st1" d="M162.7,78.3c-0.9-0.2-1.6-0.3-2.3-0.5v-1.9h4.2c1.5,0,2.6-0.2,3.3-0.6c0.7-0.4,1.1-1.1,1.1-2
			c0-0.8-0.3-1.4-0.9-1.8c-0.6-0.4-1.5-0.9-2.8-1.5c-1.1-0.5-2-0.9-2.7-1.3c-0.7-0.4-1.3-1-1.8-1.7c-0.5-0.7-0.7-1.7-0.7-2.8
			c0-2,0.6-3.4,1.8-4.2c1.2-0.8,3.1-1.2,5.6-1.2c0.9,0,1.8,0.1,2.7,0.2c0.9,0.2,1.6,0.3,2.3,0.5v1.9h-4.2c-1.1,0-2,0.2-2.6,0.6
			c-0.7,0.4-1,1-1,1.7c0,0.8,0.3,1.4,0.9,1.8c0.6,0.4,1.5,0.9,2.8,1.5c1.1,0.5,2,0.9,2.7,1.3c0.7,0.4,1.3,1,1.8,1.7
			c0.5,0.7,0.7,1.7,0.7,2.8c0,1.5-0.3,2.7-0.9,3.5c-0.6,0.8-1.5,1.4-2.6,1.7c-1.2,0.3-2.7,0.5-4.7,0.5
			C164.4,78.5,163.5,78.4,162.7,78.3z"/>
		<path class="st1" d="M177.7,78.3c-0.9-0.2-1.6-0.3-2.3-0.5v-1.9h4.2c1.5,0,2.6-0.2,3.3-0.6s1.1-1.1,1.1-2c0-0.8-0.3-1.4-0.9-1.8
			c-0.6-0.4-1.5-0.9-2.8-1.5c-1.1-0.5-2-0.9-2.7-1.3c-0.7-0.4-1.3-1-1.8-1.7c-0.5-0.7-0.7-1.7-0.7-2.8c0-2,0.6-3.4,1.8-4.2
			c1.2-0.8,3.1-1.2,5.6-1.2c0.9,0,1.8,0.1,2.7,0.2c0.9,0.2,1.6,0.3,2.3,0.5v1.9h-4.2c-1.1,0-2,0.2-2.6,0.6c-0.7,0.4-1,1-1,1.7
			c0,0.8,0.3,1.4,0.9,1.8c0.6,0.4,1.5,0.9,2.8,1.5c1.1,0.5,2,0.9,2.7,1.3c0.7,0.4,1.3,1,1.8,1.7c0.5,0.7,0.7,1.7,0.7,2.8
			c0,1.5-0.3,2.7-0.9,3.5c-0.6,0.8-1.5,1.4-2.6,1.7c-1.2,0.3-2.7,0.5-4.7,0.5C179.4,78.5,178.5,78.4,177.7,78.3z"/>
		<path class="st1" d="M192.7,77.2c-1.1-0.9-1.6-2.5-1.6-4.7c0-2.3,0.5-3.9,1.6-4.8c1.1-0.9,2.6-1.3,4.6-1.3c0.9,0,2,0.1,3.2,0.4
			v-1.5c0-1.4-0.3-2.4-1-3c-0.7-0.5-1.7-0.8-3-0.8h-3.8v-1.9c0.6-0.2,1.3-0.4,2.2-0.5c0.9-0.2,1.6-0.2,2.4-0.2
			c1.8,0,3.3,0.2,4.4,0.5c1.1,0.4,2,1,2.5,1.9c0.6,0.9,0.9,2.3,0.9,4v12.9H202l-0.6-1.1h-0.2c-1.1,1-2.5,1.5-4.2,1.5
			C195.2,78.5,193.8,78.1,192.7,77.2z M199.8,75.6c0.4-0.2,0.7-0.3,0.9-0.5V69h-2.1c-0.8,0-1.5,0.3-2,0.8c-0.6,0.5-0.8,1.4-0.8,2.6
			c0,1.2,0.3,2.1,0.8,2.6c0.6,0.5,1.2,0.8,2,0.8C199,75.9,199.4,75.8,199.8,75.6z"/>
		<path class="st1" d="M210.1,59.2h3.2l0.6,1.5h0.2c1.1-1,2.5-1.5,4.4-1.5h2.5v3.2h-4.2c-0.4,0-0.8,0.1-1.2,0.2
			c-0.4,0.2-0.7,0.3-0.9,0.5v15h-4.6V59.2z"/>
		<path class="st1" d="M227.2,85.9c-0.9-0.2-1.6-0.3-2.3-0.5v-1.9h4.2c1.5,0,2.6-0.5,3.3-1.4c0.7-0.9,1.1-2.5,1.1-4.7
			c-0.9,0.8-2.2,1.1-3.8,1.1c-1.8,0-3.3-0.4-4.3-1.3c-1.1-0.9-1.6-2.5-1.6-4.7V59.2h4.6v13.3c0,1.2,0.3,2.1,0.9,2.6
			c0.6,0.5,1.3,0.8,2.2,0.8c0.5,0,0.9-0.1,1.2-0.2c0.4-0.2,0.7-0.3,0.9-0.5V59.2h4.6v17.5c0,3.4-0.7,5.8-2,7.3
			c-1.3,1.5-3.4,2.2-6.2,2.2C229,86.1,228.1,86,227.2,85.9z"/>
	</g>
</g>
<g id="Group_2_1_">
	<g id="Gradient_Fill_1_copy_2_">
		<g>
			<path class="st1" d="M73.9,66.2c-0.2,0-0.4,0-0.5,0c0,0,0,0,0,0c0,0,0,0,0,0c-0.1,0-0.2,0-0.3,0c-3,0-5.4-2.5-5.4-5.6
				c0-1,0.3-1.9,0.7-2.7c0,0-0.1,0-0.1,0c1-2,1.5-4.2,1.5-6.6c0-8.2-6.7-14.9-14.9-14.9S40,43,40,51.3s6.7,14.9,14.9,14.9
				c0.3,0,0.5,0,0.8,0c0,0,0,0,0,0c3,0,5.4,2.5,5.4,5.6c0,0.8-0.2,1.6-0.5,2.4c0,0,0,0,0.1,0c-1.1,2.1-1.7,4.4-1.7,6.9
				C59,89.4,65.7,96,73.9,96c8.2,0,14.9-6.7,14.9-14.9S82.2,66.2,73.9,66.2z"/>
		</g>
	</g>
	<g id="Ellipse_2_copy_3_2_">
		<g>
			<path class="st0" d="M73.9,6.5c-5.1,0-9.6,2.6-12.3,6.5c-0.4,1-1.2,1.9-2.2,2.6c-2.4,1.5-5.5,0.9-7.2-1.3c0,0-0.1,0-0.1,0.1
				c-2.5-4.7-7.5-7.8-13.1-7.8C30.7,6.5,24,13.2,24,21.5c0,2.5,0.6,4.9,1.7,6.9c0,0,0,0-0.1,0c0.3,0.7,0.5,1.5,0.5,2.4
				c0,3.1-2.4,5.6-5.4,5.6c0,0,0,0,0,0c-0.3,0-0.5,0-0.8,0C11.7,36.4,5,43,5,51.3S11.7,66.2,20,66.2c0.3,0,0.5,0,0.8,0c0,0,0,0,0,0
				c3,0,5.4,2.5,5.4,5.6c0,0.8-0.2,1.6-0.5,2.4c0,0,0,0,0.1,0c-1.1,2.1-1.7,4.4-1.7,6.9C24,89.4,30.7,96,38.9,96
				c8.2,0,14.9-6.7,14.9-14.9s-6.7-14.9-14.9-14.9c-0.2,0-0.4,0-0.5,0c0,0,0,0,0,0c0,0,0,0,0,0c-0.1,0-0.2,0-0.3,0
				c-3,0-5.4-2.5-5.4-5.6c0-1,0.3-1.9,0.7-2.7c0,0-0.1,0-0.1,0c1-2,1.5-4.2,1.5-6.6s-0.6-4.6-1.5-6.6c0,0,0.1,0,0.1,0
				c-0.5-0.8-0.7-1.7-0.7-2.7c0-3.1,2.4-5.6,5.4-5.6c0.1,0,0.2,0,0.3,0c0,0,0,0,0,0c0,0,0,0,0,0c0.2,0,0.4,0,0.5,0
				c5.3,0,9.9-2.7,12.5-6.9c0,0,0,0,0,0c0.5-0.8,1.1-1.5,2-2c2.6-1.6,6-0.8,7.6,1.8c0,0.1,0.1,0.2,0.1,0.2c0,0,0,0,0,0
				c0,0,0.1-0.1,0.1-0.1c2.6,4.2,7.3,7,12.6,7c8.2,0,14.9-6.7,14.9-14.9S82.2,6.5,73.9,6.5z"/>
		</g>
	</g>
</g>
</svg>
